<svg width="40" height="40" viewBox="0 0 40 40" fill="none" xmlns="http://www.w3.org/2000/svg">
  <rect width="40" height="40" rx="20" fill="url(#paint0_linear)" />
  <path d="M20 8C13.373 8 8 13.373 8 20C8 26.627 13.373 32 20 32C26.627 32 32 26.627 32 20C32 13.373 26.627 8 20 8ZM28.291 15H24.96C24.642 13.361 24.139 11.771 23.463 10.291C25.656 11.141 27.441 12.861 28.291 15ZM20 10.036C20.948 11.637 21.678 13.444 22.135 15.355H17.865C18.322 13.444 19.052 11.637 20 10.036ZM10.218 22C10.074 21.35 10 20.681 10 20C10 19.318 10.074 18.65 10.218 18H13.956C13.882 18.665 13.836 19.332 13.836 20C13.836 20.668 13.882 21.335 13.956 22H10.218ZM11.709 25H15.04C15.358 26.638 15.861 28.229 16.537 29.709C14.344 28.859 12.559 27.139 11.709 25ZM15.04 15H11.709C12.559 12.861 14.344 11.141 16.537 10.291C15.861 11.771 15.358 13.361 15.04 15ZM20 29.964C19.052 28.363 18.322 26.556 17.865 24.645H22.135C21.678 26.556 20.948 28.363 20 29.964ZM22.67 22.645H17.33C17.24 22.002 17.181 21.342 17.181 20.677C17.181 20.013 17.24 19.335 17.33 18.677H22.67C22.76 19.335 22.819 20.013 22.819 20.677C22.819 21.342 22.76 22.002 22.67 22.645ZM23.463 29.709C24.139 28.229 24.642 26.638 24.96 25H28.291C27.441 27.139 25.656 28.859 23.463 29.709ZM26.044 22H29.782C29.926 21.35 30 20.681 30 20C30 19.318 29.926 18.65 29.782 18H26.044C26.118 18.665 26.164 19.332 26.164 20C26.164 20.668 26.118 21.335 26.044 22Z" fill="white" />
  <defs>
    <linearGradient id="paint0_linear" x1="0" y1="0" x2="40" y2="40" gradientUnits="userSpaceOnUse">
      <stop stop-color="#4F46E5" />
      <stop offset="1" stop-color="#8B5CF6" />
    </linearGradient>
  </defs>
</svg>